HIERARCHY
ROOT root
{
	OFFSET	0	13.1	24.9
	CHANNELS 6  Xposition Yposition Zposition Xrotation Yrotation Zrotation
	JOINT spine_1
	{
		OFFSET	0	9.99999	0
		CHANNELS 3  Xrotation Yrotation Zrotation
		JOINT spine_2
		{
			OFFSET	0	112	-10
			CHANNELS 3  Xrotation Yrotation Zrotation
			JOINT spine_3
			{
				OFFSET	0	206.5	19.3
				CHANNELS 3  Xrotation Yrotation Zrotation
				JOINT spine_4
				{
					OFFSET	0	110.4	14.6
					CHANNELS 3  Xrotation Yrotation Zrotation
					JOINT neck_1
					{
						OFFSET	0	71.8	-50.3
						CHANNELS 3  Xrotation Yrotation Zrotation
						JOINT neck_2
						{
							OFFSET	0	86.2	-25.8
							CHANNELS 3  Xrotation Yrotation Zrotation
							JOINT head_ee
							{
								OFFSET	0	179.8	-8.7
								CHANNELS 3  Xrotation Yrotation Zrotation
								End Site
								{
									OFFSET	1	0	0
								}
							}
						}
					}
					JOINT left_clavicle
					{
						OFFSET	-43.2	22.4	-70.8
						CHANNELS 3  Xrotation Yrotation Zrotation
						JOINT left_shoulder
						{
							OFFSET	-93.9	-5.79999	48.7
							CHANNELS 3  Xrotation Yrotation Zrotation
							JOINT left_elbow
							{
								OFFSET	-291.4	-30.8	15.2
								CHANNELS 3  Xrotation Yrotation Zrotation
								JOINT left_lowarm_twist
								{
									OFFSET	-110.7	-3.89999	13.6
									CHANNELS 3  Xrotation Yrotation Zrotation
									JOINT left_hand
									{
										OFFSET	-110.7	-3.89999	13.6
										CHANNELS 3  Xrotation Yrotation Zrotation
										JOINT left_ee
										{
											OFFSET	-80.8	-5.10001	12.1
											CHANNELS 3  Xrotation Yrotation Zrotation
											End Site
											{
												OFFSET	1	0	0
											}
										}
									}
								}
							}
						}
					}
					JOINT right_clavicle
					{
						OFFSET	43.2	22.4	-70.8
						CHANNELS 3  Xrotation Yrotation Zrotation
						JOINT right_shoulder
						{
							OFFSET	93.9	-5.79999	48.7
							CHANNELS 3  Xrotation Yrotation Zrotation
							JOINT right_elbow
							{
								OFFSET	291.4	-30.8	15.2
								CHANNELS 3  Xrotation Yrotation Zrotation
								JOINT right_lowarm_twist
								{
									OFFSET	110.7	-3.89999	13.6
									CHANNELS 3  Xrotation Yrotation Zrotation
									JOINT right_hand
									{
										OFFSET	110.7	-3.89999	13.6
										CHANNELS 3  Xrotation Yrotation Zrotation
										JOINT right_ee
										{
											OFFSET	80.8	-5.10001	12.1
											CHANNELS 3  Xrotation Yrotation Zrotation
											End Site
											{
												OFFSET	1	0	0
											}
										}
									}
								}
							}
						}
					}
				}
			}
		}
	}
	JOINT left_hip
	{
		OFFSET	-82.8	-127.5	0.300001
		CHANNELS 3  Xrotation Yrotation Zrotation
		JOINT left_knee
		{
			OFFSET	-28.2	-396.7	2.2
			CHANNELS 3  Xrotation Yrotation Zrotation
			JOINT left_ankle
			{
				OFFSET	-11.7	-411.3	35.4
				CHANNELS 3  Xrotation Yrotation Zrotation
				JOINT left_toes
				{
					OFFSET	0	-60	-88.6
					CHANNELS 3  Xrotation Yrotation Zrotation
					JOINT left_foot_ee
					{
						OFFSET	-22.5	-16.5	-42.2
						CHANNELS 3  Xrotation Yrotation Zrotation
						End Site
						{
							OFFSET	1	0	0
						}
					}
				}
			}
		}
	}
	JOINT right_hip
	{
		OFFSET	82.8	-127.5	0.300001
		CHANNELS 3  Xrotation Yrotation Zrotation
		JOINT right_knee
		{
			OFFSET	28.2	-396.7	2.2
			CHANNELS 3  Xrotation Yrotation Zrotation
			JOINT right_ankle
			{
				OFFSET	11.7	-411.3	35.4
				CHANNELS 3  Xrotation Yrotation Zrotation
				JOINT right_toes
				{
					OFFSET	0	-60	-88.6
					CHANNELS 3  Xrotation Yrotation Zrotation
					JOINT right_foot_ee
					{
						OFFSET	22.5	-16.5	-42.2
						CHANNELS 3  Xrotation Yrotation Zrotation
						End Site
						{
							OFFSET	1	0	0
						}
					}
				}
			}
		}
	}
}
MOTION
Frames: 14
Frame Time: 0.02
1201.02571023 744.947 -1780.84983872 2.62716495474 23.0175737184 3.70610707404 -2.33496 0.168108 -0.124681 -2.33497 0.175701 -0.113731 -2.33535 0.198544 -0.0662271 -2.33531 0.185593 -0.0967523 -3.58039 14.1412 5.80631 -3.3641 21.3734 8.12176 -0.0 0.0 -0.0 7.86499 15.2433 14.549 -33.0741 -17.4614 56.547 0.845442 -22.7241 0.169891 -1.39809 -0.0513541 0.171148 -1.04039 -6.12609 -9.66168 -0.0 0.0 -0.0 13.0537 22.3136 -26.1843 -18.7109 35.758 -46.2797 0.871082 23.3404 -0.179923 -42.5274 3.22388 -4.23622 -4.64238 -3.35903 30.8121 0.0 0.0 0.0 11.003 3.19824 -11.3078 -44.6394 -0.787987 6.63518 15.8046 -5.88 -2.25856 33.7513 -0.0 -0.0 -0.0 0.0 -0.0 4.9603 -12.7455 -7.28059 -13.4883 -0.316373 -2.04101 22.2168 1.34945 3.03311 33.7146 -0.0 -0.0 0.0 0.0 0.0 
1186.53954321 741.771 -1792.48056359 2.79118453553 24.0785972441 3.82708550299 -2.32141 0.0218297 -0.241664 -2.32138 0.0371631 -0.239785 -2.32151 0.0958391 -0.222919 -2.32158 0.0594305 -0.235257 -3.88954 14.4464 5.84423 -3.67656 21.9782 8.25089 -0.0 0.0 -0.0 7.56089 15.1903 14.0432 -34.7295 -17.5375 58.0764 0.886043 -23.6973 0.185893 -0.658269 -0.0236581 0.0807363 -1.01306 -5.98006 -9.41102 -0.0 0.0 -0.0 13.162 22.3009 -26.4375 -16.828 34.3328 -46.1647 1.05034 27.4875 -0.256902 -42.0065 3.16704 -4.20101 -4.70686 -4.89365 30.3636 0.0 0.0 0.0 14.604 6.0067 -12.6524 -45.6435 -0.864261 6.76953 16.0319 -4.97899 -2.28053 34.4191 -0.0 -0.0 -0.0 0.0 -0.0 2.39848 -15.6766 -8.06242 -11.3535 -0.29847 -1.71398 20.8732 -1.4254 2.85201 32.7715 -0.0 -0.0 0.0 0.0 0.0 
1172.50751179 741.712 -1800.00800169 2.16276436662 24.5770376415 3.56776455788 -1.77283 -0.0371358 0.0243422 -1.77283 -0.0386095 0.0219298 -1.77284 -0.0427482 0.0120084 -1.77284 -0.0403152 0.018609 -4.16086 14.2347 6.24964 -3.95656 21.3406 8.6714 -0.0 0.0 -0.0 7.53286 15.6115 13.9634 -35.3815 -17.2224 59.2671 0.809425 -21.849 0.156232 -0.247597 -0.00878962 0.0303991 -1.01879 -5.47538 -9.22956 -0.0 0.0 -0.0 12.8039 22.8039 -25.5595 -15.8538 36.3425 -45.1729 1.17607 30.2237 -0.3176 -42.7767 3.25119 -4.25288 -4.78703 -4.63101 31.1478 0.0 0.0 0.0 15.8974 6.10409 -13.1585 -45.4748 -0.851284 6.74706 15.9124 -4.47384 -2.26043 33.7546 -0.0 -0.0 -0.0 0.0 -0.0 2.21069 -14.7742 -6.28118 -11.2602 -0.29741 -1.6997 20.6711 3.93169 2.86594 33.5516 -0.0 -0.0 0.0 0.0 0.0 
1131.78005511 736.328 -1807.94563269 2.35566413865 26.3626051452 2.73355547936 -1.67542 0.0152544 0.0734528 -1.67542 0.0105495 0.0742747 -1.6754 -0.00748252 0.074646 -1.67541 0.00440033 0.0748909 -4.44627 13.9893 6.36382 -4.25515 20.8677 8.789 -0.0 0.0 -0.0 7.10876 16.4183 13.2038 -37.4402 -16.9784 60.6336 0.833761 -22.4415 0.165406 -0.1942 -0.00688299 0.0238462 -0.900533 -6.84244 -9.01739 -0.0 0.0 -0.0 13.1419 22.9741 -26.3285 -15.4141 36.3502 -43.626 1.18423 30.3962 -0.321716 -43.1 3.28672 -4.27431 -4.82349 -4.83216 31.3043 0.0 0.0 0.0 18.2407 1.0118 -14.1422 -44.3584 -0.767066 6.59735 12.3064 -4.08481 -1.77232 33.8042 -0.0 -0.0 -0.0 0.0 -0.0 -0.0542737 -12.7439 -4.9612 -10.0084 -0.280936 -1.50833 20.0674 5.67882 2.80853 33.6015 -0.0 -0.0 0.0 0.0 0.0 
1108.31087212 734.268 -1813.90775692 2.27006504192 25.5249706306 1.70323193478 -1.38684 -0.0543283 0.237116 -1.38681 -0.0693064 0.233178 -1.38708 -0.121899 0.210514 -1.38713 -0.0871227 0.227123 -5.12038 13.4688 5.23279 -4.98548 20.9095 7.6561 -0.0 0.0 -0.0 7.14609 17.4347 13.1893 -38.825 -17.0494 62.3274 0.727255 -19.8121 0.127007 0.904098 0.0309765 -0.111313 -0.883717 -6.9419 -8.94567 -0.0 0.0 -0.0 12.8791 23.0829 -25.7076 -14.3719 36.9719 -43.4763 1.38063 34.3674 -0.426966 -43.3842 3.31804 -4.29298 -4.90637 -5.07666 31.7947 0.0 0.0 0.0 22.0039 -0.353254 -11.807 -43.8418 -0.729096 6.52755 8.68407 -3.52562 -1.26522 33.2293 -0.0 -0.0 -0.0 0.0 -0.0 -1.15892 -10.4293 -2.83041 -8.17403 -0.249252 -1.22864 18.8745 7.12558 2.67329 33.3511 -0.0 -0.0 0.0 0.0 0.0 
1083.2723229 730.103 -1823.34548383 1.47929866954 25.215758642 2.00409133998 -1.4589 -0.0416183 0.335198 -1.45884 -0.0628634 0.33187 -1.45917 -0.139095 0.307802 -1.45929 -0.0887383 0.325907 -6.26736 13.4514 5.00916 -6.18426 21.2779 7.60786 -0.0 0.0 -0.0 7.24564 18.5305 13.2602 -37.5776 -16.5934 63.5063 0.631158 -17.3623 0.0963694 1.63065 0.0545934 -0.201105 -1.01212 -5.8414 -9.34398 -0.0 0.0 -0.0 12.5213 21.6304 -25.0089 -12.4443 37.5099 -43.5168 1.60642 38.509 -0.561161 -43.5369 3.33492 -4.30295 -5.03347 -5.28932 32.6551 0.0 0.0 0.0 25.0637 -1.50593 -11.0911 -42.6405 -0.643246 6.36392 5.56337 1.06149 -0.808313 32.4241 -0.0 -0.0 -0.0 0.0 -0.0 -2.16611 -2.82896 -1.7531 -6.39419 -0.209964 -0.958351 18.3213 9.1732 2.62754 32.7762 -0.0 -0.0 0.0 0.0 0.0 
1061.18207905 724.697 -1830.9293849 0.561764061408 25.4096680368 2.5769910738 -1.16681 -0.1014 0.214619 -1.16679 -0.114851 0.207731 -1.16721 -0.159559 0.175738 -1.16723 -0.129802 0.198732 -5.71411 14.5484 6.15419 -5.57102 22.3575 8.86623 -0.0 0.0 -0.0 7.01776 19.1024 12.8559 -38.1807 -16.2127 65.6057 0.613814 -16.9128 0.0912585 2.56417 0.0832614 -0.316899 -1.0227 -5.36881 -9.20966 -0.0 0.0 -0.0 12.4154 20.8101 -24.8301 -11.1667 37.9529 -43.7726 1.64921 39.2447 -0.588018 -44.1593 3.40397 -4.34313 -5.58794 -6.85828 36.0417 0.0 0.0 0.0 27.1262 -2.51857 -11.262 -41.1819 -0.543667 6.16293 1.6927 4.34995 -0.24728 31.8283 -0.0 -0.0 -0.0 0.0 -0.0 -3.11946 -1.69245 -1.31421 -5.123 -0.17677 -0.766095 17.5723 12.2724 2.57405 31.6484 -0.0 -0.0 0.0 0.0 0.0 
1039.32439387 721.48 -1835.22704989 -1.37270431847 26.2327295842 2.08233359501 -0.726035 0.0499602 0.441724 -0.725927 0.0217512 0.444008 -0.725685 -0.0776057 0.437714 -0.725952 -0.00750378 0.444477 -5.38002 14.0673 4.47526 -5.2602 22.639 7.04022 -0.0 0.0 -0.0 5.63482 24.0653 10.471 -33.7085 -17.9938 65.6294 0.50636 -14.0815 0.0625391 2.88849 0.0927789 -0.357233 -1.3203 -1.05105 -9.32449 -0.0 0.0 -0.0 12.6458 22.5231 -25.2193 -7.75686 34.1252 -45.1657 1.69314 39.9844 -0.616031 -40.8957 3.04692 -4.12424 -5.73154 -7.55141 36.7212 0.0 0.0 0.0 26.7917 -12.352 -7.3938 -31.6164 -0.0212322 4.79089 2.84058 10.2054 -0.412952 27.4168 -0.0 -0.0 -0.0 0.0 -0.0 -2.76875 2.38616 0.370678 -3.34965 -0.12335 -0.499194 16.5016 14.0598 2.45814 27.4702 -0.0 -0.0 0.0 0.0 0.0 
1029.54983387 722.143 -1848.74289079 -2.3928911114 25.9013989281 2.90736164347 -0.955638 0.16812 0.535916 -0.955488 0.133678 0.545528 -0.954064 0.0066873 0.561627 -0.954492 0.0953006 0.553523 -5.56701 13.5878 3.97563 -5.46871 22.1567 6.48347 -0.0 0.0 -0.0 5.72218 22.9084 10.6604 -33.3578 -17.7397 66.2364 0.534031 -14.8179 0.0694439 2.87462 0.0923761 -0.355506 -1.19678 -0.650753 -8.30871 -0.0 0.0 -0.0 12.8963 22.7979 -25.7743 -8.51647 36.5544 -43.3817 1.54712 37.4639 -0.52466 -41.7172 3.13561 -4.18124 -5.80929 -6.91059 37.8422 0.0 0.0 0.0 29.5966 -13.2934 -9.29925 -28.3081 0.105143 4.29898 0.49092 5.75869 -0.0718334 28.3559 -0.0 -0.0 -0.0 0.0 -0.0 -3.1307 4.54975 0.744766 -1.55658 -0.060955 -0.231095 14.0779 15.364 2.14048 28.0764 -0.0 -0.0 0.0 0.0 0.0 
1023.91381178 722.143 -1843.49558729 -2.41095333402 26.7712588319 2.94807420522 -0.955638 0.16812 0.535916 -0.955488 0.133678 0.545528 -0.954064 0.0066873 0.561627 -0.954492 0.0953006 0.553523 -5.56701 13.5878 3.97563 -5.46871 22.1567 6.48347 -0.0 0.0 -0.0 5.72218 22.9084 10.6604 -33.3578 -17.7397 66.2364 0.534031 -14.8179 0.0694439 2.87462 0.0923761 -0.355506 -1.19678 -0.650753 -8.30871 -0.0 0.0 -0.0 12.8963 22.7979 -25.7743 -8.51647 36.5544 -43.3817 1.54712 37.4639 -0.52466 -41.7172 3.13561 -4.18124 -5.80929 -6.91059 37.8422 0.0 0.0 0.0 29.5966 -13.2934 -9.29925 -28.3081 0.105143 4.29898 0.49092 5.75869 -0.0718334 28.3559 -0.0 -0.0 -0.0 0.0 -0.0 -3.1307 4.54975 0.744766 -1.55658 -0.060955 -0.231095 14.0779 15.364 2.14048 28.0764 -0.0 -0.0 0.0 0.0 0.0 
1017.23305095 722.143 -1837.0634004 -2.43382251867 27.8188324591 2.99794247515 -0.955638 0.16812 0.535916 -0.955488 0.133678 0.545528 -0.954064 0.0066873 0.561627 -0.954492 0.0953006 0.553523 -5.56701 13.5878 3.97563 -5.46871 22.1567 6.48347 -0.0 0.0 -0.0 5.72218 22.9084 10.6604 -33.3578 -17.7397 66.2364 0.534031 -14.8179 0.0694439 2.87462 0.0923761 -0.355506 -1.19678 -0.650753 -8.30871 -0.0 0.0 -0.0 12.8963 22.7979 -25.7743 -8.51647 36.5544 -43.3817 1.54712 37.4639 -0.52466 -41.7172 3.13561 -4.18124 -5.80929 -6.91059 37.8422 0.0 0.0 0.0 29.5966 -13.2934 -9.29925 -28.3081 0.105143 4.29898 0.49092 5.75869 -0.0718334 28.3559 -0.0 -0.0 -0.0 0.0 -0.0 -3.1307 4.54975 0.744766 -1.55658 -0.060955 -0.231095 14.0779 15.364 2.14048 28.0764 -0.0 -0.0 0.0 0.0 0.0 
1012.78330937 722.143 -1832.64573878 -2.44999968744 28.527097681 3.03220569189 -0.955638 0.16812 0.535916 -0.955488 0.133678 0.545528 -0.954064 0.0066873 0.561627 -0.954492 0.0953006 0.553523 -5.56701 13.5878 3.97563 -5.46871 22.1567 6.48347 -0.0 0.0 -0.0 5.72218 22.9084 10.6604 -33.3578 -17.7397 66.2364 0.534031 -14.8179 0.0694439 2.87462 0.0923761 -0.355506 -1.19678 -0.650753 -8.30871 -0.0 0.0 -0.0 12.8963 22.7979 -25.7743 -8.51647 36.5544 -43.3817 1.54712 37.4639 -0.52466 -41.7172 3.13561 -4.18124 -5.80929 -6.91059 37.8422 0.0 0.0 0.0 29.5966 -13.2934 -9.29925 -28.3081 0.105143 4.29898 0.49092 5.75869 -0.0718334 28.3559 -0.0 -0.0 -0.0 0.0 -0.0 -3.1307 4.54975 0.744766 -1.55658 -0.060955 -0.231095 14.0779 15.364 2.14048 28.0764 -0.0 -0.0 0.0 0.0 0.0 
1007.84683229 722.143 -1827.61433363 -2.46889772964 29.3232831667 3.07127715245 -0.955638 0.16812 0.535916 -0.955488 0.133678 0.545528 -0.954064 0.0066873 0.561627 -0.954492 0.0953006 0.553523 -5.56701 13.5878 3.97563 -5.46871 22.1567 6.48347 -0.0 0.0 -0.0 5.72218 22.9084 10.6604 -33.3578 -17.7397 66.2364 0.534031 -14.8179 0.0694439 2.87462 0.0923761 -0.355506 -1.19678 -0.650753 -8.30871 -0.0 0.0 -0.0 12.8963 22.7979 -25.7743 -8.51647 36.5544 -43.3817 1.54712 37.4639 -0.52466 -41.7172 3.13561 -4.18124 -5.80929 -6.91059 37.8422 0.0 0.0 0.0 29.5966 -13.2934 -9.29925 -28.3081 0.105143 4.29898 0.49092 5.75869 -0.0718334 28.3559 -0.0 -0.0 -0.0 0.0 -0.0 -3.1307 4.54975 0.744766 -1.55658 -0.060955 -0.231095 14.0779 15.364 2.14048 28.0764 -0.0 -0.0 0.0 0.0 0.0 
1001.43682825 722.143 -1820.86662687 -2.49504696893 30.3745434254 3.12381356205 -0.955638 0.16812 0.535916 -0.955488 0.133678 0.545528 -0.954064 0.0066873 0.561627 -0.954492 0.0953006 0.553523 -5.56701 13.5878 3.97563 -5.46871 22.1567 6.48347 -0.0 0.0 -0.0 5.72218 22.9084 10.6604 -33.3578 -17.7397 66.2364 0.534031 -14.8179 0.0694439 2.87462 0.0923761 -0.355506 -1.19678 -0.650753 -8.30871 -0.0 0.0 -0.0 12.8963 22.7979 -25.7743 -8.51647 36.5544 -43.3817 1.54712 37.4639 -0.52466 -41.7172 3.13561 -4.18124 -5.80929 -6.91059 37.8422 0.0 0.0 0.0 29.5966 -13.2934 -9.29925 -28.3081 0.105143 4.29898 0.49092 5.75869 -0.0718334 28.3559 -0.0 -0.0 -0.0 0.0 -0.0 -3.1307 4.54975 0.744766 -1.55658 -0.060955 -0.231095 14.0779 15.364 2.14048 28.0764 -0.0 -0.0 0.0 0.0 0.0 
